<?xml version='1.0' encoding='utf-8'?>
<svg xmlns:xlink="http://www.w3.org/1999/xlink" xmlns="http://www.w3.org/2000/svg" version="1.1" id="Layer_1" x="0px"
     y="0px" viewBox="0 0 500 500" style="enable-background:new 0 0 500 500;">
    <style type="text/css">.st0{fill:#141414;} .st1{fill:#F8FBF7;} .st2{fill:#F8BA00;} .st3{fill:#1E4C4C;}
        .st4{fill:#610000;} .st5{fill:#559879;} .st6{fill:#FFFFFF;}
        .st7{fill-rule:evenodd;clip-rule:evenodd;fill:#CCE4C4;}
        .st8{clip-path:url(#SVGID_2_);fill-rule:evenodd;clip-rule:evenodd;fill:#F8FBF7;} .st9{fill:#CCE4C4;}
        .st10{fill-rule:evenodd;clip-rule:evenodd;fill:#F8FBF7;}
    </style>
    <rect class="st0" width="500" height="500" />
    <g>
        <path class="st1"
              d="M434.9,129.4c2.6-1.9,4.9-4,7-6.2c-22,10.7-49.3,4.6-64.3-15.9c-15-20.5-12.7-48.3,4.1-66.1 c-2.8,1.3-5.5,2.9-8,4.8c-23,16.9-28,49.3-11.1,72.3C379.5,141.3,411.8,146.3,434.9,129.4z" />
        <g>
            <g id="illustration_18_">
                <g id="launch_and_publish_2_">
                    <g>
                        <g>
                            <g>
                                <polygon class="st2"
                                         points="298.5,232.8 303.3,275.7 308.1,275.7 303.9,233.1 298.5,232.8 " />
                            </g>
                        </g>
                        <g>
                            <g>
                                <g>
                                    <polygon class="st2"
                                             points="196.3,232.8 191.5,275.7 186.1,275.7 190.3,233.1 196.3,232.8 " />
                                </g>
                            </g>
                            <g>
                                <g>
                                    <path class="st3"
                                          d="M196.3,232.8l-4.6,41.9l4.3-7c5.8-9.4,15.9-15.2,26.7-15.2l1.8,0c-4.4-15.3-6.9-28-8.1-35.1 L196.3,232.8z" />
                                </g>
                            </g>
                            <g>
                                <g>
                                    <path class="st3"
                                          d="M298.5,232.8l-19.8-15.2c2.9-15.5,5.4-34,6.1-54.3c0.8-21.9-5.9-45.7-12.1-61.2l0,0l-0.1-0.2l-0.2-0.5 l0,0c-8.2-18.1-18.1-30.4-22.2-35l-1.2-0.8l-0.8,40.4h-0.1l-0.3,21.7l0.9-0.1c6.4,0.1,11.5,5.6,11.4,12.2 c-0.1,6.6-5.3,11.9-11.7,11.8l-1.1-0.1l-2.3,115.2c10.5,0.1,20.9-1.1,20.9-1.1s1.8-4.8,4.4-13.2l1.7,0 c10.8,0,20.9,5.8,26.7,15.2l4.3,7L298.5,232.8z" />
                                </g>
                            </g>
                            <g>
                                <g>
                                    <path class="st4"
                                          d="M215.7,212.2l-0.2-1c0,0,0.3,2.2,1,6.2l0,0C216.2,215.7,215.9,213.9,215.7,212.2z" />
                                </g>
                            </g>
                            <g>
                                <g>
                                    <path class="st5"
                                          d="M246.3,66.7c-4.4,4.9-14.9,17.6-23.1,37.4h0c-5.3,14.1-11.1,36-11.2,56.3c-0.1,19.5,1.5,36.9,3.8,51.8 c0.3,1.7,0.5,3.5,0.8,5.2l0,0c1.2,7.1,3.7,19.8,8.1,35.1c2.4,7.9,4.1,12.2,4.1,12.2c4.1,1.6,10.4,2.1,16.5,2.2l2.3-115.2 c-5.9-0.7-10.4-5.8-10.3-12.1c0.1-6.3,4.9-11.3,10.8-11.7l0.3-21.4l1-40.7L246.3,66.7z" />
                                </g>
                            </g>
                            <g>
                                <g>
                                    <path class="st2"
                                          d="M257.5,139.6c0-4.9-4-8.9-8.9-8.9c-4.9,0-8.9,4-8.9,8.9c0,4.9,4,8.9,8.9,8.9 C253.5,148.6,257.5,144.6,257.5,139.6z" />
                                </g>
                            </g>
                        </g>
                    </g>
                </g>
                <g>
                    <g>
                        <path class="st6"
                              d="M275.8,338.8c0-1.2-1-2.2-2.2-2.2c-1.2,0-2.2,1-2.2,2.2s1,2.2,2.2,2.2C274.8,341,275.8,340,275.8,338.8z" />
                    </g>
                </g>
                <g>
                    <g>
                        <path class="st6"
                              d="M218.7,346.4c0-1.2-1-2.2-2.2-2.2c-1.2,0-2.2,1-2.2,2.2c0,1.2,1,2.2,2.2,2.2 C217.7,348.6,218.7,347.6,218.7,346.4z" />
                    </g>
                </g>
                <g>
                    <g>
                        <path class="st6"
                              d="M275.3,312.3c0-1-0.8-1.7-1.7-1.7c-1,0-1.7,0.8-1.7,1.7c0,1,0.8,1.7,1.7,1.7 C274.5,314,275.3,313.3,275.3,312.3z" />
                    </g>
                </g>
                <g>
                    <g>
                        <path class="st6"
                              d="M226.3,368.2c0-0.8-0.6-1.4-1.4-1.4c-0.8,0-1.4,0.6-1.4,1.4c0,0.8,0.6,1.4,1.4,1.4 C225.6,369.7,226.3,369,226.3,368.2z" />
                    </g>
                </g>
                <g>
                    <g>
                        <path class="st6"
                              d="M225.4,324.8c0-3.5-2.8-6.4-6.4-6.4c-3.5,0-6.4,2.8-6.4,6.4c0,3.5,2.8,6.4,6.4,6.4 C222.5,331.2,225.4,328.3,225.4,324.8z" />
                    </g>
                </g>
                <g>
                    <g>
                        <path class="st6"
                              d="M308.7,362.9c0-7.7-6.2-13.9-13.9-13.9s-13.9,6.2-13.9,13.9c0,7.7,6.2,13.9,13.9,13.9 S308.7,370.6,308.7,362.9z" />
                    </g>
                </g>
                <g>
                    <g>
                        <path class="st6"
                              d="M212.8,330.4c0-1.3-1.1-2.4-2.4-2.4c-1.3,0-2.4,1.1-2.4,2.4c0,1.3,1.1,2.4,2.4,2.4 C211.7,332.8,212.8,331.7,212.8,330.4z" />
                    </g>
                </g>
            </g>
        </g>
        <g>
            <path class="st6"
                  d="M191.3,40.7c0.4,11.8,7,17.9,18.8,17.5c-11.8,0.4-17.9,7-17.5,18.8c-0.4-11.8-7-17.9-18.8-17.5 C185.6,59.1,191.7,52.5,191.3,40.7z" />
        </g>
        <g>
            <path class="st6"
                  d="M443.2,92.2c-3,5.2-1.9,9.6,3.3,12.7c-5.2-3-9.6-1.9-12.7,3.3c3-5.2,1.9-9.6-3.3-12.7 C435.7,98.5,440.2,97.4,443.2,92.2z" />
        </g>
        <rect x="233.3" y="267.8" class="st1" width="28.2" height="144.1" />
        <circle class="st7" cx="257.5" cy="351.2" r="9.2" />
        <path class="st7"
              d="M248.3,326.8c0-2.2-1.8-4-4-4c-2.2,0-4,1.8-4,4c0,2.2,1.8,4,4,4C246.5,330.8,248.3,329,248.3,326.8z" />
        <circle class="st7" cx="237.1" cy="395.8" r="10.5" />
        <g>
            <defs>
                <rect id="SVGID_1_" x="-0.6" width="501.5" height="501.5" />
            </defs>
            <clipPath id="SVGID_2_">
                <use xlink:href="#SVGID_1_" style="overflow:visible;" />
            </clipPath>
            <path class="st8"
                  d="M516,440.4c26.1-11.4,44.3-37.3,44.3-67.5c0-40.7-33-73.7-73.7-73.7c-24.9,0-47,12.4-60.3,31.4 c-9.7-5.9-21-9.4-33.2-9.4c-35.2,0-63.8,28.6-63.8,63.8c0,2.3,0.1,4.6,0.4,6.9c-14.4,1.6-26.8,10.1-33.8,22 c-7.1-8.3-17.6-13.6-29.3-13.6c-9.4,0-18.1,3.4-24.8,9c-7.2-4.3-15.7-6.8-24.7-6.8c-13.4,0-25.4,5.4-34.2,14.2 c-8.9-10-21.8-16.4-36.2-16.4c-3.6,0-7,0.4-10.4,1.1c-5.4-20.9-24.3-36.3-46.8-36.3c-13.5,0-25.6,5.5-34.4,14.4 c-6.1-7.4-14.5-12.9-24.1-15.3c5.1-10,7.9-21.2,7.9-33.2c0-40.7-33-73.7-73.7-73.7c-40.7,0-73.6,33-73.6,73.7 c0,40.7,33,73.6,73.6,73.6c3.4,0,6.8-0.3,10.1-0.7c-0.1,1.3-0.2,2.6-0.2,4c0,18.1,10.8,33.9,26.2,40.9c-4.1,7.1-6.4,15.2-6.4,24 c0,26.7,21.7,48.4,48.4,48.4c0.3,0,0.6,0,0.9-0.1c7.7,5.3,17.1,8.3,27.1,8.3c15.3,0,28.9-7.1,37.8-18.2c5.5,2.2,11.5,3.4,17.7,3.4 c6,0,11.7-1.1,17-3.1c8,15.6,24.2,26.2,42.9,26.2c16.2,0,30.5-8,39.3-20.2c7.7,16.5,24.4,27.9,43.8,27.9c21.5,0,39.8-14.1,46-33.5 c4.2-1.7,8.1-4.1,11.4-7.1c7.4,14.9,22.7,25.2,40.4,25.2c11.8,0,22.4-4.5,30.5-11.9c6.7,2,13.9,3.1,21.2,3.1 c2.5,0,4.9-0.1,7.3-0.4c7.1,30.4,34.3,53.2,66.9,53.2c38,0,68.7-30.8,68.7-68.7C562.5,475.2,543,449.6,516,440.4z" />
        </g>
        <path class="st9"
              d="M447.6,311.3c0,0-2.9,2-7,5.2c-4,3.1-9.1,7.5-13.8,12.2c-2.4,2.3-4.6,4.8-6.8,7.1c-2,2.4-4,4.6-5.7,6.6 c-1.7,1.9-3,3.6-4.1,4.8c-1.1,1.2-1.7,1.8-1.7,1.8s0.2-0.9,0.6-2.4c0.5-1.5,1.1-3.7,2.2-6c1-2.5,2.6-5.2,4.4-8 c1.9-2.8,4.2-5.5,6.7-8.1c2.6-2.5,5.3-4.8,8.2-6.6c2.8-1.9,5.6-3.3,8.1-4.3C444,311.5,447.6,311.3,447.6,311.3z" />
        <path class="st9"
              d="M131.3,384.4c0,0,3.1,2.6,6.1,7.7c1.5,2.6,3.1,5.7,4.1,9.4c1.2,3.6,1.6,7.7,1.6,11.9c-0.3,2.1-0.3,4.2-1,6.2 c-0.4,2-1.2,3.9-2.2,5.7c-0.8,1.8-1.9,3.3-3.1,4.7c-0.6,0.7-1.1,1.4-1.6,2c-0.6,0.5-1.3,1-1.9,1.5c-2.3,2.1-4.6,3.1-6.1,3.8 c-1.6,0.7-2.5,1.1-2.5,1.1s0.6-0.8,1.7-2.1c0.5-0.6,1.2-1.4,2-2.2c0.8-0.8,1.4-2,2.2-3.1c0.8-1.1,1.6-2.3,2.2-3.7 c0.7-1.3,1.4-2.7,1.9-4.3c0.7-1.5,0.9-3.1,1.3-4.7c0.5-1.6,0.4-3.4,0.6-5.1c0-1.7,0.1-3.5-0.1-5.2c-0.2-1.7-0.2-3.5-0.6-5.1 c-0.5-3.3-1.3-6.5-1.9-9.2C132.5,388.2,131.3,384.4,131.3,384.4z" />
        <path class="st7"
              d="M232.3,452c8.5,0,16.1,3.4,21.4,8.8c-4.2-7.7-11.5-12.9-19.9-12.9c-6.5,0-12.3,3.1-16.6,8 C221.7,453.5,226.8,452,232.3,452z" />
        <path class="st7"
              d="M211.3,451.2c5.1,6.7,7.1,14.8,6,22.4c3.6-8,3.2-17-1.9-23.6c-3.9-5.1-9.9-7.9-16.4-8.3 C203.7,443.6,208,446.8,211.3,451.2z" />
        <path class="st7"
              d="M46.9,437.2c-6.8,9.1-16.8,14.4-27.4,15.5c12.2,2.1,24.1-1.4,30.8-10.4c5.2-7,6.4-15.9,4.1-24.7 C53.7,424.5,51.3,431.3,46.9,437.2z" />
        <path class="st7"
              d="M55.3,463.4c-8.2-4.4-13.3-12.3-15.1-21.3c-0.8,11,3,20.8,11.1,25.2c6.2,3.4,13.7,3,20.9-0.5 C66.4,467.3,60.6,466.2,55.3,463.4z" />
        <path class="st7"
              d="M414,381.1c-7.5-1-13.8-5-17.8-10.8c2.8,7.8,8.6,13.4,16,14.4c5.7,0.7,11.2-1.5,15.6-5.6 C423.5,381,418.8,381.8,414,381.1z" />
        <path class="st7"
              d="M420.3,394.8c-0.1-6.1,2.8-11.7,7.4-15.7c-6.6,3.1-11,8.5-10.9,14.6c0.1,4.7,2.8,8.9,7.1,11.9 C421.6,402.5,420.3,398.8,420.3,394.8z" />
        <path class="st6"
              d="M155.5,100.3c0-1.4-1.1-2.5-2.5-2.5c-1.4,0-2.5,1.1-2.5,2.5c0,1.4,1.1,2.5,2.5,2.5 C154.4,102.8,155.5,101.7,155.5,100.3z" />
        <path class="st6"
              d="M120.4,50.6c0-0.9-0.8-1.7-1.7-1.7c-0.9,0-1.7,0.8-1.7,1.7c0,0.9,0.8,1.7,1.7,1.7 C119.6,52.3,120.4,51.6,120.4,50.6z" />
        <path class="st6"
              d="M433,26.6c0-0.9-0.8-1.7-1.7-1.7c-0.9,0-1.7,0.8-1.7,1.7c0,0.9,0.8,1.7,1.7,1.7C432.3,28.3,433,27.6,433,26.6z " />
        <path class="st6"
              d="M363.5,205.7c0-0.6-0.5-1.2-1.2-1.2c-0.6,0-1.2,0.5-1.2,1.2c0,0.6,0.5,1.2,1.2,1.2 C362.9,206.9,363.5,206.4,363.5,205.7z" />
        <path class="st6"
              d="M300.9,52.6c0-0.6-0.5-1.2-1.2-1.2c-0.6,0-1.2,0.5-1.2,1.2c0,0.6,0.5,1.2,1.2,1.2 C300.4,53.8,300.9,53.2,300.9,52.6z" />
        <path class="st6"
              d="M161.6,134.1c0-0.8-0.7-1.5-1.5-1.5c-0.8,0-1.5,0.7-1.5,1.5c0,0.8,0.7,1.5,1.5,1.5 C160.9,135.6,161.6,134.9,161.6,134.1z" />
        <path class="st6"
              d="M91.6,195.7c0-1.1-0.9-2-2-2c-1.1,0-2,0.9-2,2c0,1.1,0.9,2,2,2C90.7,197.7,91.6,196.8,91.6,195.7z" />
        <path class="st7"
              d="M341.8,396.7c0-7.6-6.1-13.7-13.7-13.7c-7.6,0-13.7,6.1-13.7,13.7c0,7.6,6.1,13.7,13.7,13.7 C335.7,410.4,341.8,404.3,341.8,396.7z" />
        <circle class="st7" cx="187.6" cy="408.6" r="13.7" />
        <circle class="st10" cx="209.2" cy="385.6" r="7" />
    </g>
</svg>
